<svg width="940" height="940" viewBox="0 0 940 940" fill="none" xmlns="http://www.w3.org/2000/svg">
<rect width="940" height="940" rx="470" fill="white"/>
<path d="M630.135 745.24C685.335 792.44 687.135 857.24 681.135 883.74C649.635 860.24 603.635 833.74 594.635 800.24C587.435 773.44 506.635 716.74 467.135 691.74V769.24C500.335 766.44 560.969 788.74 587.135 800.24C588.135 803.074 590.135 813.74 590.135 833.74C459.335 885.34 336.969 855.24 292.135 833.74C292.135 826.74 292.635 808.74 294.635 792.74C307.435 781.14 382.969 772.24 419.135 769.24C419.469 735.74 419.035 668.24 414.635 666.24C409.135 663.74 372.135 631.24 345.135 608.74C323.535 590.74 273.469 518.907 251.135 485.24V454.74C247.635 451.074 235.635 433.14 215.635 390.74C195.635 348.34 195.635 294.074 198.135 272.24C203.302 268.574 218.135 257.54 236.135 242.74C236.535 228.34 240.635 212.407 242.635 206.24C258.135 179.24 309.635 122.84 391.635 113.24C494.135 101.24 536.635 140.74 550.135 153.74C560.935 164.14 560.635 205.074 559.135 224.24C559.135 224.24 553.469 232.074 554.635 235.74H559.135C559.635 242.574 560.635 260.24 560.635 276.24C556.635 296.24 538.135 325.74 514.135 330.24C461.135 329.24 506.635 348.74 548.635 381.74C551.035 458.94 595.969 558.574 618.135 598.74L622.135 582.24C624.802 588.24 644.735 616.54 703.135 681.74C776.135 763.24 819.635 842.74 808.635 824.74C797.635 806.74 561.135 686.24 630.135 745.24Z" fill="black"/>
<path d="M518 382L421 311C421 323.667 422.4 354 428 374C435 429 536 546 585 592C565 572 532 443.667 518 382Z" fill="#DF2329"/>
<g filter="url(#filter0_i_5_10)">
<path d="M387.5 338C375.5 260.8 406.5 209.833 423.5 194C409 165.5 390.5 164.5 432.5 160.5C474.5 156.5 502.5 184 531.5 199C533 175.5 543.5 152.5 481.5 131C419.5 109.5 385 126.5 356.5 135C327.5 140 245 203 275.5 189.5C306 176 317 179.5 288.5 203C250.5 231.5 265.5 227.5 275.5 222.5C285.5 217.5 284.5 227 282 233.5C279.5 240 226.5 277 216.5 281C211.7 290.6 224.167 326.333 231 343C242.333 358.167 262.6 387.5 253 383.5C243.4 379.5 240 381.833 239.5 383.5C261 413.333 302.5 471.8 296.5 467C290.5 462.2 279 460.667 274 460.5C283.833 472.167 309.2 501.2 332 524C360.5 552.5 465 613 441 585.5C421.8 563.5 398 528 388.5 513C394.667 516.333 413.8 529.3 441 554.5C468.2 579.7 497 595 508 599.5C496 583.833 476 556.7 492 573.5C512 594.5 548.5 611 538.5 603C530.5 596.6 478.5 538.333 453.5 510C436.5 484.833 399.5 415.2 387.5 338Z" fill="#DF2329"/>
</g>
<g filter="url(#filter1_i_5_10)">
<path d="M462.5 175.5C461.167 184.333 464 200 486 192C486 183 471 173.5 462.5 175.5Z" fill="white"/>
</g>
<path d="M462.5 175.5C461.167 184.333 464 200 486 192C486 183 471 173.5 462.5 175.5Z" stroke="black"/>
<path d="M474.405 317.792C457.171 314.272 461.497 285.52 465.814 271.584C472.879 275.524 487.716 284.113 490.545 286.949C494.083 290.494 487.267 306.47 474.405 317.792Z" fill="white" stroke="black"/>
<g filter="url(#filter2_i_5_10)">
<path d="M472 202.5C444.388 202.5 450.167 184.167 456.5 175.5C458.833 174.333 458.3 171.4 437.5 169C416.7 166.6 418.167 175.333 421.5 180C428.333 183.5 440.7 191.2 435.5 194L435.407 194.05C428.91 197.548 419.51 202.609 421.5 225.5C423.5 248.5 452 247.5 465 246.5C475.4 245.7 497.667 222.5 507.5 211C515 198 506 202.5 472 202.5Z" fill="#FDCB34"/>
</g>
<path d="M472 202.5C444.388 202.5 450.167 184.167 456.5 175.5C458.833 174.333 458.3 171.4 437.5 169C416.7 166.6 418.167 175.333 421.5 180C428.333 183.5 440.7 191.2 435.5 194L435.407 194.05C428.91 197.548 419.51 202.609 421.5 225.5C423.5 248.5 452 247.5 465 246.5C475.4 245.7 497.667 222.5 507.5 211C515 198 506 202.5 472 202.5Z" stroke="black"/>
<g filter="url(#filter3_i_5_10)">
<path d="M508.5 291C510.5 270.6 498.667 250.5 492.5 243C495.5 239.333 503.9 230.9 513.5 226.5C524.5 218.5 536 221 536 243C540.5 269 517 298.5 508.5 291Z" fill="#FDCB34"/>
</g>
<path d="M508.5 291C510.5 270.6 498.667 250.5 492.5 243C495.5 239.333 503.9 230.9 513.5 226.5C524.5 218.5 536 221 536 243C540.5 269 517 298.5 508.5 291Z" stroke="black"/>
<defs>
<filter id="filter0_i_5_10" x="215.427" y="115.555" width="324.774" height="489.501" filterUnits="userSpaceOnUse" color-interpolation-filters="sRGB">
<feFlood flood-opacity="0" result="BackgroundImageFix"/>
<feBlend mode="normal" in="SourceGraphic" in2="BackgroundImageFix" result="shape"/>
<feColorMatrix in="SourceAlpha" type="matrix" values="0 0 0 0 0 0 0 0 0 0 0 0 0 0 0 0 0 0 127 0" result="hardAlpha"/>
<feOffset dy="-5"/>
<feGaussianBlur stdDeviation="3"/>
<feComposite in2="hardAlpha" operator="arithmetic" k2="-1" k3="1"/>
<feColorMatrix type="matrix" values="0 0 0 0 0 0 0 0 0 0 0 0 0 0 0 0 0 0 0.25 0"/>
<feBlend mode="normal" in2="shape" result="effect1_innerShadow_5_10"/>
</filter>
<filter id="filter1_i_5_10" x="461.724" y="174.731" width="24.7755" height="19.9761" filterUnits="userSpaceOnUse" color-interpolation-filters="sRGB">
<feFlood flood-opacity="0" result="BackgroundImageFix"/>
<feBlend mode="normal" in="SourceGraphic" in2="BackgroundImageFix" result="shape"/>
<feColorMatrix in="SourceAlpha" type="matrix" values="0 0 0 0 0 0 0 0 0 0 0 0 0 0 0 0 0 0 127 0" result="hardAlpha"/>
<feOffset/>
<feGaussianBlur stdDeviation="5"/>
<feComposite in2="hardAlpha" operator="arithmetic" k2="-1" k3="1"/>
<feColorMatrix type="matrix" values="0 0 0 0 0 0 0 0 0 0 0 0 0 0 0 0 0 0 0.25 0"/>
<feBlend mode="normal" in2="shape" result="effect1_innerShadow_5_10"/>
</filter>
<filter id="filter2_i_5_10" x="409.042" y="168.09" width="101.423" height="83.3179" filterUnits="userSpaceOnUse" color-interpolation-filters="sRGB">
<feFlood flood-opacity="0" result="BackgroundImageFix"/>
<feBlend mode="normal" in="SourceGraphic" in2="BackgroundImageFix" result="shape"/>
<feColorMatrix in="SourceAlpha" type="matrix" values="0 0 0 0 0 0 0 0 0 0 0 0 0 0 0 0 0 0 127 0" result="hardAlpha"/>
<feOffset dx="-10" dy="4"/>
<feGaussianBlur stdDeviation="5"/>
<feComposite in2="hardAlpha" operator="arithmetic" k2="-1" k3="1"/>
<feColorMatrix type="matrix" values="0 0 0 0 1 0 0 0 0 1 0 0 0 0 1 0 0 0 0.45 0"/>
<feBlend mode="normal" in2="shape" result="effect1_innerShadow_5_10"/>
</filter>
<filter id="filter3_i_5_10" x="485.853" y="221.832" width="51.2139" height="74.8552" filterUnits="userSpaceOnUse" color-interpolation-filters="sRGB">
<feFlood flood-opacity="0" result="BackgroundImageFix"/>
<feBlend mode="normal" in="SourceGraphic" in2="BackgroundImageFix" result="shape"/>
<feColorMatrix in="SourceAlpha" type="matrix" values="0 0 0 0 0 0 0 0 0 0 0 0 0 0 0 0 0 0 127 0" result="hardAlpha"/>
<feOffset dx="-10" dy="4"/>
<feGaussianBlur stdDeviation="3"/>
<feComposite in2="hardAlpha" operator="arithmetic" k2="-1" k3="1"/>
<feColorMatrix type="matrix" values="0 0 0 0 1 0 0 0 0 1 0 0 0 0 1 0 0 0 0.45 0"/>
<feBlend mode="normal" in2="shape" result="effect1_innerShadow_5_10"/>
</filter>
</defs>
</svg>
