<svg width="714" height="909" viewBox="0 0 714 909" fill="none" xmlns="http://www.w3.org/2000/svg">
<path d="M519.186 842.779L550.023 865.783L558.518 828.261C563.505 806.237 564.042 765.207 544.619 724.043C566.268 734.799 588.653 746.677 607.02 757.147C618.107 763.467 627.433 769.105 634.15 773.565C637.537 775.813 639.929 777.543 641.436 778.75C641.506 778.806 641.573 778.86 641.636 778.911C641.935 779.375 642.232 779.824 642.515 780.233C642.698 780.497 643.085 781.049 643.587 781.687C643.821 781.985 644.32 782.607 645.002 783.338L645.019 783.357C645.248 783.61 647.528 786.133 651.138 788.146L651.177 788.167C652.493 788.902 659.452 792.787 668.755 790.716C681.757 787.821 686.506 777.086 687.697 771.885C688.733 767.358 688.212 763.705 688.068 762.708C687.85 761.204 687.539 760.032 687.365 759.421C686.81 757.474 686.101 755.948 685.998 755.726L685.987 755.704C685.039 753.631 683.179 750.43 681.564 747.705C677.638 741.081 670.703 729.896 661.158 715.642C642.081 687.155 612.246 645.914 574.758 604.061C545.788 571.717 526.56 548.75 514.355 533.296C508.245 525.56 503.991 519.828 501.195 515.828C498.678 512.227 497.87 510.768 497.849 510.779C497.846 510.781 497.854 510.8 497.869 510.835L468.146 443.959L463.503 463.114C459.764 454.037 456.046 444.484 452.485 434.631C438.531 396.023 427.703 354.699 426.623 319.964L426.261 308.295L417.081 301.082C409.458 295.093 401.772 289.556 394.714 284.609C404.101 278.68 411.764 270.923 417.613 263.41C427.856 250.251 435.307 234.358 438.15 220.143L438.635 217.716V215.24C438.635 198.436 437.596 180.124 437.069 172.916L436.772 168.861L437.059 165.191C437.882 154.681 438.386 138.307 437.172 122.757C436.568 115.016 435.482 106.703 433.492 99.1116C431.738 92.4154 428.313 82.2791 420.477 74.7324L403.511 92.3509L420.476 74.7324C412.691 67.2351 395.957 51.6095 366.505 39.8876C337.137 28.1988 296.663 20.9786 241.728 27.41C149.861 38.1653 92.273 100.883 73.9541 132.794L72.658 135.051L71.8549 137.528C69.9918 143.272 66.6884 155.615 65.0627 169.087C51.3073 180.128 40.5603 188.09 36.6668 190.853L27.5671 197.311L26.2977 208.396C23.5414 232.469 23.2184 292.057 46.0247 340.406C56.2532 362.09 64.5774 377.821 70.9447 388.804C73.8725 393.854 76.619 398.314 79.1354 402.042V424.24V431.779L83.3025 438.06C94.6416 455.154 112.982 481.88 131.291 506.705C148.822 530.474 168.554 555.632 182.131 566.946C190.638 574.036 200.03 582.028 209.223 589.85C214.557 594.389 219.824 598.87 224.811 603.085C231.487 608.727 237.669 613.894 242.588 617.849C243.54 618.615 244.473 619.357 245.375 620.066C245.942 626.389 246.372 635.313 246.671 645.651C247.039 658.372 247.193 672.589 247.219 685.503C231.678 687.155 213.822 689.383 197.126 692.087C184.262 694.171 171.571 696.619 160.977 699.437C155.694 700.842 150.472 702.459 145.803 704.347C141.629 706.035 135.758 708.766 130.847 713.216L123.978 719.441L122.828 728.64C120.657 746.011 120.135 765.118 120.135 772.74V788.478L134.325 795.282C184.21 819.205 313.878 850.607 452.31 795.996L455.828 794.608C459.377 797.94 462.968 801.061 466.479 803.976C477.743 813.327 491.313 822.911 503.127 831.255C509.106 835.478 514.634 839.383 519.186 842.779ZM642.603 779.751C642.599 779.751 642.536 779.694 642.427 779.582C642.552 779.695 642.607 779.751 642.603 779.751ZM431.467 179.468C431.467 179.468 431.476 179.448 431.496 179.407C431.478 179.448 431.468 179.469 431.467 179.468ZM345.135 677.594C349.17 680.44 353.259 683.371 357.35 686.358C353.262 685.579 349.175 684.905 345.135 684.371V677.594ZM244.588 613.769C244.589 613.77 244.598 613.804 244.612 613.874C244.595 613.805 244.588 613.768 244.588 613.769Z" fill="black" stroke="white" stroke-width="50"/>
<path d="M371 321L274 250C274 262.667 275.4 293 281 313C288 368 389 485 438 531C418 511 385 382.667 371 321Z" fill="#DF2329"/>
<g filter="url(#filter0_i_5_18)">
<path d="M240.5 277C228.5 199.8 259.5 148.833 276.5 133C262 104.5 243.5 103.5 285.5 99.5C327.5 95.5 355.5 123 384.5 138C386 114.5 396.5 91.5 334.5 70C272.5 48.5 238 65.5 209.5 74C180.5 79 98 142 128.5 128.5C159 115 170 118.5 141.5 142C103.5 170.5 118.5 166.5 128.5 161.5C138.5 156.5 137.5 166 135 172.5C132.5 179 79.5 216 69.5 220C64.7 229.6 77.1667 265.333 84 282C95.3334 297.167 115.6 326.5 106 322.5C96.4 318.5 93 320.833 92.5 322.5C114 352.333 155.5 410.8 149.5 406C143.5 401.2 132 399.667 127 399.5C136.833 411.167 162.2 440.2 185 463C213.5 491.5 318 552 294 524.5C274.8 502.5 251 467 241.5 452C247.667 455.333 266.8 468.3 294 493.5C321.2 518.7 350 534 361 538.5C349 522.833 329 495.7 345 512.5C365 533.5 401.5 550 391.5 542C383.5 535.6 331.5 477.333 306.5 449C289.5 423.833 252.5 354.2 240.5 277Z" fill="#DF2329"/>
</g>
<g filter="url(#filter1_i_5_18)">
<path d="M315.5 114.5C314.167 123.333 317 139 339 131C339 122 324 112.5 315.5 114.5Z" fill="white"/>
</g>
<path d="M315.5 114.5C314.167 123.333 317 139 339 131C339 122 324 112.5 315.5 114.5Z" stroke="black"/>
<path d="M327.405 256.792C310.171 253.272 314.497 224.52 318.814 210.584C325.879 214.524 340.716 223.113 343.545 225.949C347.083 229.494 340.267 245.47 327.405 256.792Z" fill="white" stroke="black"/>
<g filter="url(#filter2_i_5_18)">
<path d="M325 141.5C297.388 141.5 303.167 123.167 309.5 114.5C311.833 113.333 311.3 110.4 290.5 108C269.7 105.6 271.167 114.333 274.5 119C281.333 122.5 293.7 130.2 288.5 133L288.407 133.05C281.91 136.548 272.51 141.609 274.5 164.5C276.5 187.5 305 186.5 318 185.5C328.4 184.7 350.667 161.5 360.5 150C368 137 359 141.5 325 141.5Z" fill="#FDCB34"/>
</g>
<path d="M325 141.5C297.388 141.5 303.167 123.167 309.5 114.5C311.833 113.333 311.3 110.4 290.5 108C269.7 105.6 271.167 114.333 274.5 119C281.333 122.5 293.7 130.2 288.5 133L288.407 133.05C281.91 136.548 272.51 141.609 274.5 164.5C276.5 187.5 305 186.5 318 185.5C328.4 184.7 350.667 161.5 360.5 150C368 137 359 141.5 325 141.5Z" stroke="black"/>
<g filter="url(#filter3_i_5_18)">
<path d="M361.5 230C363.5 209.6 351.667 189.5 345.5 182C348.5 178.333 356.9 169.9 366.5 165.5C377.5 157.5 389 160 389 182C393.5 208 370 237.5 361.5 230Z" fill="#FDCB34"/>
</g>
<path d="M361.5 230C363.5 209.6 351.667 189.5 345.5 182C348.5 178.333 356.9 169.9 366.5 165.5C377.5 157.5 389 160 389 182C393.5 208 370 237.5 361.5 230Z" stroke="black"/>
<defs>
<filter id="filter0_i_5_18" x="68.4272" y="54.5554" width="324.774" height="489.501" filterUnits="userSpaceOnUse" color-interpolation-filters="sRGB">
<feFlood flood-opacity="0" result="BackgroundImageFix"/>
<feBlend mode="normal" in="SourceGraphic" in2="BackgroundImageFix" result="shape"/>
<feColorMatrix in="SourceAlpha" type="matrix" values="0 0 0 0 0 0 0 0 0 0 0 0 0 0 0 0 0 0 127 0" result="hardAlpha"/>
<feOffset dy="-5"/>
<feGaussianBlur stdDeviation="3"/>
<feComposite in2="hardAlpha" operator="arithmetic" k2="-1" k3="1"/>
<feColorMatrix type="matrix" values="0 0 0 0 0 0 0 0 0 0 0 0 0 0 0 0 0 0 0.25 0"/>
<feBlend mode="normal" in2="shape" result="effect1_innerShadow_5_18"/>
</filter>
<filter id="filter1_i_5_18" x="314.724" y="113.731" width="24.7755" height="19.9761" filterUnits="userSpaceOnUse" color-interpolation-filters="sRGB">
<feFlood flood-opacity="0" result="BackgroundImageFix"/>
<feBlend mode="normal" in="SourceGraphic" in2="BackgroundImageFix" result="shape"/>
<feColorMatrix in="SourceAlpha" type="matrix" values="0 0 0 0 0 0 0 0 0 0 0 0 0 0 0 0 0 0 127 0" result="hardAlpha"/>
<feOffset/>
<feGaussianBlur stdDeviation="5"/>
<feComposite in2="hardAlpha" operator="arithmetic" k2="-1" k3="1"/>
<feColorMatrix type="matrix" values="0 0 0 0 0 0 0 0 0 0 0 0 0 0 0 0 0 0 0.25 0"/>
<feBlend mode="normal" in2="shape" result="effect1_innerShadow_5_18"/>
</filter>
<filter id="filter2_i_5_18" x="262.042" y="107.09" width="101.423" height="83.3179" filterUnits="userSpaceOnUse" color-interpolation-filters="sRGB">
<feFlood flood-opacity="0" result="BackgroundImageFix"/>
<feBlend mode="normal" in="SourceGraphic" in2="BackgroundImageFix" result="shape"/>
<feColorMatrix in="SourceAlpha" type="matrix" values="0 0 0 0 0 0 0 0 0 0 0 0 0 0 0 0 0 0 127 0" result="hardAlpha"/>
<feOffset dx="-10" dy="4"/>
<feGaussianBlur stdDeviation="5"/>
<feComposite in2="hardAlpha" operator="arithmetic" k2="-1" k3="1"/>
<feColorMatrix type="matrix" values="0 0 0 0 1 0 0 0 0 1 0 0 0 0 1 0 0 0 0.45 0"/>
<feBlend mode="normal" in2="shape" result="effect1_innerShadow_5_18"/>
</filter>
<filter id="filter3_i_5_18" x="338.853" y="160.832" width="51.2139" height="74.8552" filterUnits="userSpaceOnUse" color-interpolation-filters="sRGB">
<feFlood flood-opacity="0" result="BackgroundImageFix"/>
<feBlend mode="normal" in="SourceGraphic" in2="BackgroundImageFix" result="shape"/>
<feColorMatrix in="SourceAlpha" type="matrix" values="0 0 0 0 0 0 0 0 0 0 0 0 0 0 0 0 0 0 127 0" result="hardAlpha"/>
<feOffset dx="-10" dy="4"/>
<feGaussianBlur stdDeviation="3"/>
<feComposite in2="hardAlpha" operator="arithmetic" k2="-1" k3="1"/>
<feColorMatrix type="matrix" values="0 0 0 0 1 0 0 0 0 1 0 0 0 0 1 0 0 0 0.45 0"/>
<feBlend mode="normal" in2="shape" result="effect1_innerShadow_5_18"/>
</filter>
</defs>
</svg>
