<?xml version="1.0" encoding="iso-8859-1"?>
<!-- Uploaded to: SVG Repo, www.svgrepo.com, Generator: SVG Repo Mixer Tools -->
<svg height="800px" width="800px" version="1.1" id="Layer_1" xmlns="http://www.w3.org/2000/svg" xmlns:xlink="http://www.w3.org/1999/xlink" 
	 viewBox="0 0 512 512" xml:space="preserve">
<path style="fill:#FFD890;" d="M501.801,301.647v-91.293h-64.596c-4.495-17.898-11.57-34.768-20.808-50.196l45.688-45.688
	l-64.554-64.554l-45.688,45.688c-15.428-9.239-32.299-16.315-50.196-20.808V10.199h-91.293v64.596
	c-17.898,4.494-34.768,11.57-50.196,20.808l-45.688-45.688l-64.554,64.554l45.688,45.688c-9.239,15.428-16.315,32.299-20.808,50.196
	H10.199v91.293h64.596c4.495,17.898,11.57,34.768,20.808,50.196l-45.688,45.688l64.554,64.554l45.688-45.688
	c15.428,9.239,32.299,16.315,50.196,20.809v64.595h91.293v-64.596c17.898-4.495,34.768-11.57,50.196-20.809l45.688,45.688
	l64.554-64.554l-45.688-45.688c9.239-15.428,16.315-32.299,20.808-50.196h64.596V301.647z M256,304.832
	c-26.969,0-48.831-21.862-48.831-48.831c0-26.969,21.862-48.832,48.831-48.832s48.831,21.862,48.831,48.832
	C304.831,282.969,282.969,304.832,256,304.832z"/>
<path style="fill:#DB4417;" d="M256,157.276c-54.524,0-98.724,44.2-98.724,98.724s44.2,98.724,98.724,98.724
	s98.724-44.2,98.724-98.724S310.524,157.276,256,157.276z M256,304.832c-26.969,0-48.831-21.862-48.831-48.831
	c0-26.969,21.862-48.832,48.831-48.832s48.831,21.862,48.831,48.832C304.831,282.969,282.969,304.832,256,304.832z"/>
<g>
	<path style="fill:#4C1D1D;" d="M301.647,512h-91.293c-5.633,0-10.199-4.567-10.199-10.199v-56.81
		c-13.282-3.919-26.11-9.236-38.293-15.875l-40.18,40.181c-1.912,1.912-4.507,2.987-7.212,2.987s-5.3-1.075-7.212-2.987
		l-64.554-64.554c-3.983-3.983-3.983-10.441,0-14.425l40.18-40.18c-6.639-12.182-11.957-25.009-15.875-38.293h-56.81
		C4.566,311.846,0,307.279,0,301.647v-91.293c0-5.632,4.566-10.199,10.199-10.199h56.81c3.92-13.283,9.237-26.111,15.875-38.293
		l-40.18-40.179c-3.983-3.983-3.984-10.441,0-14.425l64.554-64.555c1.912-1.912,4.507-2.987,7.212-2.987s5.3,1.075,7.212,2.987
		l40.18,40.182c12.183-6.64,25.009-11.958,38.293-15.875V10.199C200.154,4.567,204.72,0,210.353,0h91.293
		c5.633,0,10.199,4.567,10.199,10.199v56.81c13.282,3.919,26.11,9.236,38.293,15.875l40.18-40.181
		c1.912-1.912,4.507-2.987,7.212-2.987s5.299,1.075,7.212,2.987l64.554,64.555c3.983,3.983,3.983,10.441,0,14.425l-40.18,40.179
		c6.639,12.182,11.957,25.009,15.875,38.293h56.81c5.633,0,10.199,4.567,10.199,10.199v91.293c0,5.632-4.566,10.199-10.199,10.199
		h-56.81c-3.92,13.283-9.237,26.111-15.875,38.293l40.181,40.181c3.983,3.983,3.983,10.441,0,14.425l-64.554,64.554
		c-1.912,1.912-4.507,2.987-7.212,2.987s-5.299-1.075-7.212-2.987l-40.181-40.183c-12.183,6.64-25.009,11.958-38.293,15.875v56.811
		C311.846,507.433,307.28,512,301.647,512z M220.553,491.602h70.895v-54.396c0-4.676,3.18-8.753,7.715-9.892
		c16.682-4.188,32.643-10.806,47.441-19.666c4.012-2.403,9.145-1.768,12.452,1.538l38.475,38.477l50.13-50.129l-38.477-38.477
		c-3.307-3.307-3.941-8.44-1.538-12.452c8.86-14.796,15.477-30.757,19.667-47.441c1.139-4.535,5.216-7.715,9.892-7.715h54.396
		v-70.895h-54.396c-4.675,0-8.753-3.18-9.892-7.715c-4.19-16.683-10.807-32.645-19.667-47.441
		c-2.403-4.013-1.769-9.146,1.538-12.452l38.475-38.475l-50.13-50.13l-38.475,38.476c-3.307,3.307-8.439,3.94-12.452,1.538
		c-14.797-8.861-30.759-15.478-47.441-19.666c-4.536-1.139-7.715-5.216-7.715-9.892V20.398h-70.895v54.396
		c0,4.676-3.18,8.753-7.715,9.892c-16.682,4.188-32.643,10.806-47.441,19.666c-4.012,2.403-9.145,1.769-12.452-1.538l-38.475-38.476
		l-50.13,50.13l38.475,38.475c3.308,3.307,3.941,8.439,1.538,12.452c-8.86,14.796-15.477,30.757-19.667,47.441
		c-1.139,4.535-5.216,7.715-9.892,7.715H20.398v70.895h54.396c4.675,0,8.753,3.18,9.892,7.715
		c4.19,16.683,10.807,32.645,19.667,47.441c2.403,4.012,1.769,9.146-1.538,12.452L64.34,397.53l50.13,50.129l38.475-38.477
		c3.308-3.307,8.439-3.94,12.452-1.538c14.797,8.861,30.759,15.478,47.441,19.666c4.536,1.139,7.715,5.216,7.715,9.892V491.602z
		 M256,315.031c-32.55,0-59.03-26.481-59.03-59.031c0-32.549,26.481-59.03,59.03-59.03s59.03,26.481,59.03,59.03
		C315.03,288.55,288.55,315.031,256,315.031z M256,217.368c-21.302,0-38.632,17.329-38.632,38.632s17.33,38.633,38.632,38.633
		c21.301,0,38.632-17.33,38.632-38.633C294.632,234.698,277.302,217.368,256,217.368z"/>
	<path style="fill:#4C1D1D;" d="M256,364.923c-60.06,0-108.922-48.862-108.922-108.923S195.94,147.077,256,147.077
		S364.922,195.939,364.922,256S316.06,364.923,256,364.923z M256,167.475c-48.812,0-88.524,39.713-88.524,88.525
		s39.712,88.525,88.524,88.525s88.524-39.713,88.524-88.525S304.812,167.475,256,167.475z M256,315.031
		c-32.55,0-59.03-26.481-59.03-59.031c0-32.549,26.481-59.03,59.03-59.03s59.03,26.481,59.03,59.03
		C315.03,288.55,288.55,315.031,256,315.031z M256,217.368c-21.302,0-38.632,17.329-38.632,38.632s17.33,38.633,38.632,38.633
		c21.301,0,38.632-17.33,38.632-38.633C294.632,234.698,277.302,217.368,256,217.368z"/>
	<path style="fill:#4C1D1D;" d="M377.116,209.357c-3.83,0-7.499-2.166-9.237-5.861c-20.293-43.161-64.209-71.051-111.879-71.051
		c-5.633,0-10.199-4.567-10.199-10.199s4.566-10.199,10.199-10.199c27.856,0,54.885,7.971,78.166,23.052
		c22.666,14.683,40.707,35.333,52.173,59.718c2.397,5.098,0.207,11.172-4.891,13.57C380.047,209.045,378.57,209.357,377.116,209.357
		z"/>
	<path style="fill:#4C1D1D;" d="M389.755,266.199c-5.633,0-10.199-4.567-10.199-10.199c0-3.776-0.172-7.589-0.512-11.334
		c-0.51-5.61,3.626-10.57,9.235-11.079c5.605-0.523,10.57,3.626,11.079,9.235c0.396,4.356,0.596,8.79,0.596,13.179
		C399.955,261.632,395.388,266.199,389.755,266.199z"/>
	<path style="fill:#4C1D1D;" d="M256,399.955c-79.376,0-143.955-64.577-143.955-143.955c0-5.632,4.566-10.199,10.199-10.199
		c5.633,0,10.199,4.567,10.199,10.199c0,68.129,55.427,123.556,123.556,123.556c5.633,0,10.199,4.567,10.199,10.199
		C266.199,395.387,261.633,399.955,256,399.955z"/>
</g>
</svg>